<svg width="50" height="50" viewBox="0 0 50 50" fill="none" xmlns="http://www.w3.org/2000/svg">
<path fill-rule="evenodd" clip-rule="evenodd" d="M24.999 5.98145C14.2305 5.98145 5.5 14.7124 5.5 25.4824C5.5 34.0979 11.086 41.4069 18.8355 43.9839C19.8115 44.1644 20.1665 43.5639 20.1665 43.0454C20.1665 42.5834 20.1495 41.3579 20.141 39.7289C14.7165 40.9084 13.572 37.1144 13.572 37.1144C12.685 34.8619 11.4065 34.2629 11.4065 34.2629C9.636 33.0539 11.541 33.0774 11.541 33.0774C13.498 33.2159 14.528 35.0864 14.528 35.0864C16.267 38.0664 19.0925 37.2039 20.203 36.7079C20.3795 35.4454 20.8845 34.5879 21.441 34.0994C17.1115 33.6074 12.5595 31.9344 12.5595 24.4624C12.5595 22.3329 13.319 20.5919 14.566 19.2284C14.3665 18.7374 13.696 16.7549 14.7575 14.0689C14.7575 14.0689 16.3945 13.5449 20.1205 16.0694C21.675 15.6349 23.3435 15.4179 25.002 15.4114C26.658 15.4184 28.327 15.6349 29.8835 16.0694C33.607 13.5449 35.2415 14.0689 35.2415 14.0689C36.3055 16.7549 35.6355 18.7374 35.4355 19.2284C36.6855 20.5919 37.4395 22.3329 37.4395 24.4624C37.4395 31.9519 32.881 33.6019 28.537 34.0829C29.236 34.6854 29.86 35.8779 29.86 37.6974C29.86 40.3029 29.8365 42.4054 29.8365 43.0449C29.8365 43.5674 30.187 44.1749 31.177 43.9814C38.918 41.3989 44.5 34.0954 44.5 25.4824C44.5 14.7124 35.7695 5.98145 24.999 5.98145V5.98145Z" fill="black"/>
</svg>
