<svg width="50" height="50" viewBox="0 0 50 50" fill="none" xmlns="http://www.w3.org/2000/svg">
<path d="M16.6667 39.5833H10.4167V18.75H16.6667V39.5833ZM39.5834 39.5833H33.3334V28.4542C33.3334 25.5542 32.3001 24.1104 30.2522 24.1104C28.6292 24.1104 27.6001 24.9188 27.0834 26.5375V39.5833H20.8334C20.8334 39.5833 20.9167 20.8333 20.8334 18.75H25.7667L26.148 22.9167H26.2772C27.5584 20.8333 29.6063 19.4208 32.4147 19.4208C34.5501 19.4208 36.2772 20.0146 37.5959 21.5063C38.923 23 39.5834 25.0042 39.5834 27.8188V39.5833Z" fill="black"/>
<path d="M13.5417 16.6666C15.3251 16.6666 16.7708 15.2675 16.7708 13.5416C16.7708 11.8157 15.3251 10.4166 13.5417 10.4166C11.7582 10.4166 10.3125 11.8157 10.3125 13.5416C10.3125 15.2675 11.7582 16.6666 13.5417 16.6666Z" fill="black"/>
</svg>
