<svg width="38" height="38" viewBox="0 0 38 38" fill="none" xmlns="http://www.w3.org/2000/svg">
<path fill-rule="evenodd" clip-rule="evenodd" d="M19.0001 0.882935C9.01056 0.882935 0.883057 9.01044 0.883057 18.9994C0.883057 28.9894 9.01056 37.1164 19.0001 37.1164C28.9896 37.1164 37.117 28.9899 37.117 18.9999C37.117 9.01044 28.9901 0.882935 19.0001 0.882935V0.882935ZM30.9786 9.23744C33.2103 11.9573 34.4435 15.3593 34.473 18.8774C33.9625 18.7684 28.8466 17.7319 23.6976 18.3789C23.2795 17.3503 22.8259 16.3366 22.3376 15.3394C28.0591 13.0024 30.6526 9.67944 30.9786 9.23744ZM19.0001 3.54844C22.9321 3.54844 26.5256 5.02344 29.2585 7.44744C28.98 7.84444 26.6506 10.9754 21.1481 13.0379C18.6126 8.37894 15.8016 4.55144 15.3741 3.97844C16.5615 3.69256 17.7787 3.54822 19.0001 3.54844V3.54844ZM12.4216 5.01943C12.8291 5.57844 15.5946 9.41094 18.1586 13.9684C10.9201 15.8909 4.54456 15.8624 3.85256 15.8539C4.85556 11.0524 8.09155 7.06144 12.4216 5.01943V5.01943ZM3.52506 19.0229C3.52506 18.8649 3.52806 18.7074 3.53306 18.5504C4.21006 18.5644 11.7096 18.6609 19.4371 16.3484C19.8799 17.212 20.2982 18.0878 20.6916 18.9749C20.4871 19.0324 20.2836 19.0934 20.0816 19.1589C12.1006 21.7384 7.85356 28.7709 7.50306 29.3709C5.03206 26.6269 3.52506 22.9979 3.52506 19.0229V19.0229ZM19.0001 34.4989C15.5576 34.5025 12.2133 33.3524 9.50105 31.2324C9.78005 30.6629 12.9136 24.6094 21.6416 21.5684L21.7441 21.5339C23.9166 27.1794 24.8146 31.9114 25.0451 33.2699C23.1334 34.0825 21.0773 34.5005 19.0001 34.4989ZM27.6461 31.8519C27.4881 30.9104 26.6646 26.3804 24.6401 20.8184C29.489 20.0424 33.7495 21.3129 34.279 21.4794C33.5895 25.7859 31.118 29.5044 27.6461 31.8519V31.8519Z" fill="black"/>
</svg>
